<svg width="200" height="200" viewBox="0 0 200 200" fill="none" xmlns="http://www.w3.org/2000/svg">
  <!-- Base Platform -->
  <path d="M100 160L40 125L40 115L100 150L160 115L160 125L100 160Z" fill="#E2E8F0"/>

  <!-- Server Stack - Bottom -->
  <g>
    <!-- Bottom server - right side -->
    <path d="M100 130L140 108L140 98L100 120L100 130Z" fill="#0066CC"/>
    <!-- Bottom server - left side -->
    <path d="M100 130L60 108L60 98L100 120L100 130Z" fill="#0080FF"/>
    <!-- Bottom server - top -->
    <path d="M100 120L140 98L100 76L60 98L100 120Z" fill="#4DA6FF"/>
    <!-- LED lights -->
    <circle cx="75" cy="102" r="2" fill="#00FFB9"/>
    <circle cx="82" cy="98" r="2" fill="#FF4566"/>
  </g>

  <!-- Server Stack - Middle -->
  <g>
    <path d="M100 110L140 88L140 78L100 100L100 110Z" fill="#7B00CC"/>
    <path d="M100 110L60 88L60 78L100 100L100 110Z" fill="#9D00FF"/>
    <path d="M100 100L140 78L100 56L60 78L100 100Z" fill="#B366FF"/>
    <circle cx="75" cy="82" r="2" fill="#00FFB9"/>
    <circle cx="82" cy="78" r="2" fill="#00FFB9"/>
  </g>

  <!-- Server Stack - Top -->
  <g>
    <path d="M100 90L140 68L140 58L100 80L100 90Z" fill="#FF0080"/>
    <path d="M100 90L60 68L60 58L100 80L100 90Z" fill="#FF4566"/>
    <path d="M100 80L140 58L100 36L60 58L100 80Z" fill="#FF6B8A"/>
    <circle cx="75" cy="62" r="2" fill="#00FFB9"/>
    <circle cx="82" cy="58" r="2" fill="#00FFB9"/>
  </g>

  <!-- Connection lines/signals -->
  <path d="M100 35L100 25" stroke="#00FFB9" stroke-width="2" stroke-dasharray="4 4" opacity="0.6"/>
  <circle cx="100" cy="20" r="3" fill="#00FFB9" opacity="0.8"/>
</svg>
